<?xml version="1.0" encoding="iso-8859-1"?>
<!-- Generator: Adobe Illustrator 19.0.0, SVG Export Plug-In . SVG Version: 6.00 Build 0)  -->
<svg version="1.1" id="Layer_1" xmlns="http://www.w3.org/2000/svg" xmlns:xlink="http://www.w3.org/1999/xlink" x="0px" y="0px"
	 viewBox="0 0 512 512" style="enable-background:new 0 0 512 512;" xml:space="preserve">
<g>
	<g>
		<path d="M504.5,220h-196v-22.5c0-4.143-3.357-7.5-7.5-7.5h-22.5V95H321c4.143,0,7.5-3.357,7.5-7.5v-30c0-4.143-3.357-7.5-7.5-7.5
			h-42.5V7.5c0-4.143-3.357-7.5-7.5-7.5h-30c-4.142,0-7.5,3.357-7.5,7.5V50H191c-4.142,0-7.5,3.357-7.5,7.5v30
			c0,4.143,3.358,7.5,7.5,7.5h42.5v95H211c-4.142,0-7.5,3.357-7.5,7.5V220H7.5c-4.142,0-7.5,3.357-7.5,7.5V293
			c0,10.466,3.762,20.066,10,27.531V504.5c0,4.143,3.358,7.5,7.5,7.5h477c4.143,0,7.5-3.357,7.5-7.5V320.531
			c6.238-7.464,10-17.065,10-27.531v-65.5C512,223.357,508.643,220,504.5,220z M198.5,80V65H241c4.142,0,7.5-3.357,7.5-7.5V15h15
			v42.5c0,4.143,3.357,7.5,7.5,7.5h42.5v15H271c-4.143,0-7.5,3.357-7.5,7.5V190h-15V87.5c0-4.143-3.358-7.5-7.5-7.5H198.5z
			 M218.5,205h75v15h-75V205z M487,497H25v-15h462V497z M25,467V332.037C30.48,334.574,36.575,336,43,336
			c4.53,0,8.896-0.709,13-2.014V467H25z M71,467V325.586c2.843-2.446,5.375-5.244,7.5-8.346c2.125,3.102,4.657,5.899,7.5,8.346V467
			H71z M101,467V333.986c4.104,1.304,8.47,2.014,13,2.014c4.53,0,8.896-0.709,13-2.014V467H101z M142,467V325.586
			c2.843-2.446,5.375-5.244,7.5-8.346c2.125,3.102,4.657,5.899,7.5,8.346V467H142z M194.5,349.704c-4.142,0-7.5,3.357-7.5,7.5V444.5
			c0,4.143,3.358,7.5,7.5,7.5h123c4.143,0,7.5-3.357,7.5-7.5V335.937c0.664,0.031,1.328,0.063,2,0.063
			c14.727,0,27.747-7.44,35.5-18.76c2.125,3.102,4.657,5.9,7.5,8.346V467h-15V351.974c0-4.143-3.357-7.5-7.5-7.5s-7.5,3.357-7.5,7.5
			V467H172V333.986c4.104,1.304,8.47,2.014,13,2.014c14.726,0,27.747-7.44,35.5-18.76C228.253,328.56,241.274,336,256,336
			c14.727,0,27.747-7.44,35.5-18.76c4.574,6.678,10.99,11.989,18.5,15.235V437H202v-79.796
			C202,353.061,198.642,349.704,194.5,349.704z M385,467V333.986c4.104,1.304,8.47,2.014,13,2.014c4.53,0,8.896-0.709,13-2.014V467
			H385z M426,467V325.586c2.843-2.446,5.375-5.243,7.5-8.346c2.125,3.102,4.657,5.9,7.5,8.346V467H426z M487,467h-31V333.986
			c4.104,1.304,8.47,2.014,13,2.014c6.425,0,12.52-1.426,18-3.963V467z M497,293c0,15.439-12.561,28-28,28
			c-15.439,0-28-12.561-28-28c0-4.143-3.357-7.5-7.5-7.5s-7.5,3.357-7.5,7.5c0,15.439-12.561,28-28,28c-15.439,0-28-12.561-28-28
			c0-4.143-3.357-7.5-7.5-7.5s-7.5,3.357-7.5,7.5c0,15.439-12.561,28-28,28c-15.439,0-28-12.561-28-28c0-4.143-3.357-7.5-7.5-7.5
			s-7.5,3.357-7.5,7.5c0,15.439-12.561,28-28,28c-15.439,0-28-12.561-28-28c0-4.143-3.358-7.5-7.5-7.5c-4.142,0-7.5,3.357-7.5,7.5
			c0,15.439-12.561,28-28,28c-15.439,0-28-12.561-28-28c0-4.143-3.358-7.5-7.5-7.5c-4.142,0-7.5,3.357-7.5,7.5
			c0,15.439-12.561,28-28,28c-15.439,0-28-12.561-28-28c0-4.143-3.358-7.5-7.5-7.5c-4.142,0-7.5,3.357-7.5,7.5
			c0,15.439-12.561,28-28,28s-28-12.561-28-28v-58h482V293z"/>
	</g>
</g>
<g>
	<g>
		<circle cx="43" cy="293" r="7.5"/>
	</g>
</g>
<g>
	<g>
		<circle cx="114" cy="293" r="7.5"/>
	</g>
</g>
<g>
	<g>
		<circle cx="185" cy="293" r="7.5"/>
	</g>
</g>
<g>
	<g>
		<circle cx="256" cy="293" r="7.5"/>
	</g>
</g>
<g>
	<g>
		<circle cx="327" cy="293" r="7.5"/>
	</g>
</g>
<g>
	<g>
		<circle cx="398" cy="293" r="7.5"/>
	</g>
</g>
<g>
	<g>
		<circle cx="469" cy="293" r="7.5"/>
	</g>
</g>
<g>
</g>
<g>
</g>
<g>
</g>
<g>
</g>
<g>
</g>
<g>
</g>
<g>
</g>
<g>
</g>
<g>
</g>
<g>
</g>
<g>
</g>
<g>
</g>
<g>
</g>
<g>
</g>
<g>
</g>
</svg>
