<svg id="_x33_0" enable-background="new 0 0 64 64" height="512" viewBox="0 0 64 64" width="512" xmlns="http://www.w3.org/2000/svg"><g><path d="m25 11h-2v2h-2v6h4v2h-4v2h2v2h2v-2h2v-6h-4v-2h4v-2h-2z"/><path d="m60 1h-24c-1.302 0-2.402.839-2.816 2h-30.184c-1.103 0-2 .897-2 2v2c0 1.103.897 2 2 2v47c0 1.654 1.346 3 3 3h5.35c.826 2.327 3.043 4 5.65 4h14c2.607 0 4.824-1.673 5.65-4h5.35c1.654 0 3-1.346 3-3v-33h15c1.654 0 3-1.346 3-3v-16c0-1.654-1.346-3-3-3zm-24 2h24c.552 0 1 .448 1 1v1h-26v-1c0-.552.448-1 1-1zm-25 36v-10h26v10zm2-30v4h-2v-4zm-2 18v-4h2v4zm0-12h2v2h-2zm0 4h2v2h-2zm26 8h-2v-4.184c.314.112.648.184 1 .184h1zm-4 0h-18v-18h18v11zm2-20h26v2h-26zm-32-2h30v2h-30zm3 52c-.552 0-1-.448-1-1v-47h4v32h2v16zm25 4h-14c-2.206 0-4-1.794-4-4v-16h22v16c0 2.206-1.794 4-4 4zm12-5c0 .552-.448 1-1 1h-5v-16h2v-18h4zm17-35h-24c-.552 0-1-.448-1-1v-9h26v9c0 .552-.448 1-1 1z"/><path d="m56 13c-.771 0-1.468.301-2 .78-.532-.48-1.229-.78-2-.78-1.654 0-3 1.346-3 3s1.346 3 3 3c.771 0 1.468-.301 2-.78.532.48 1.229.78 2 .78 1.654 0 3-1.346 3-3s-1.346-3-3-3zm-4 4c-.552 0-1-.448-1-1s.448-1 1-1 1 .448 1 1-.448 1-1 1zm4 0c-.552 0-1-.448-1-1s.448-1 1-1 1 .448 1 1-.448 1-1 1z"/><path d="m43 13h4v2h-4z"/><path d="m37 13h4v2h-4z"/><path d="m13 31h2v2h-2z"/><path d="m17 31h2v2h-2z"/><path d="m21 31h2v2h-2z"/><path d="m17 35h2v2h-2z"/><path d="m21 35h2v2h-2z"/><path d="m13 35h2v2h-2z"/><path d="m25 37h10v-6h-10zm2-4h6v2h-6z"/><path d="m15 45h2v4h-2z"/><path d="m17 51h-2v6c0 1.103.897 2 2 2h2v-2h-2z"/><path d="m37 17h10v2h-10z"/></g></svg>