<?xml version="1.0" encoding="iso-8859-1"?>
<!-- Generator: Adobe Illustrator 17.1.0, SVG Export Plug-In . SVG Version: 6.00 Build 0)  -->
<!DOCTYPE svg PUBLIC "-//W3C//DTD SVG 1.1//EN" "http://www.w3.org/Graphics/SVG/1.1/DTD/svg11.dtd">
<svg version="1.1" id="Capa_1" xmlns="http://www.w3.org/2000/svg" xmlns:xlink="http://www.w3.org/1999/xlink" x="0px" y="0px"
	 viewBox="0 0 512 512" style="enable-background:new 0 0 512 512;" xml:space="preserve">
<g>
	<path d="M312,184V40c0-4.418-3.582-8-8-8H128c-4.418,0-8,3.582-8,8v144c0,4.418,3.582,8,8,8h176C308.418,192,312,188.418,312,184z
		 M296,176H136V48h160V176z"/>
	<path d="M194.343,101.657c0.001,0.001,0.001,0.001,0.002,0.002C192.843,104.792,192,108.299,192,112c0,13.234,10.766,24,24,24
		s24-10.766,24-24s-10.766-24-24-24c-3.701,0-7.208,0.843-10.341,2.346c-0.001-0.001-0.001-0.002-0.002-0.002l-24-24
		c-3.124-3.124-8.189-3.124-11.313,0c-3.125,3.124-3.125,8.189,0,11.313L194.343,101.657z M216,104c4.411,0,8,3.589,8,8
		s-3.589,8-8,8s-8-3.589-8-8S211.589,104,216,104z"/>
	<path d="M447.663,389.701L402.11,237.858c-1.4-4.666-2.11-9.502-2.11-14.375V184v-66.745c0-10.685-4.161-20.73-11.716-28.285
		l-22.627-22.627c-3.124-3.124-8.189-3.124-11.313,0c-3.125,3.124-3.125,8.189,0,11.313l22.627,22.627
		c4.533,4.533,7.03,10.561,7.03,16.972V120h-8.008C362.763,120,352,130.763,352,143.992v24.017C352,181.237,362.763,192,375.992,192
		H384v31.483c0,6.431,0.937,12.814,2.785,18.973l45.196,150.653c-0.3,8.593-4.076,16.769-10.462,22.576
		c-6.751,6.138-15.518,9.039-24.688,8.163c-16.167-1.542-28.83-16.286-28.83-33.567V287.996C368,274.765,357.235,264,344.004,264
		H344V32c0-17.645-14.355-32-32-32H120c-17.645,0-32,14.355-32,32v464H72c-4.418,0-8,3.582-8,8s3.582,8,8,8h288c4.418,0,8-3.582,8-8
		s-3.582-8-8-8h-16V280h0.004c4.409,0,7.996,3.587,7.996,7.996v102.285c0,25.438,19.024,47.179,43.311,49.495
		c1.531,0.146,3.061,0.218,4.585,0.218c11.935,0,23.534-4.423,32.385-12.47C442.271,418.442,448,405.494,448,392
		C448,391.221,447.886,390.447,447.663,389.701z M368,168.008v-24.017c0-4.407,3.585-7.992,7.992-7.992H384v40h-8.008
		C371.585,176,368,172.415,368,168.008z M104,496v-16h176c4.418,0,8-3.582,8-8s-3.582-8-8-8H104V224h176c4.418,0,8-3.582,8-8
		s-3.582-8-8-8H104V32c0-8.822,7.178-16,16-16h192c8.822,0,16,7.178,16,16v176h-16c-4.418,0-8,3.582-8,8s3.582,8,8,8h16v240h-16
		c-4.418,0-8,3.582-8,8s3.582,8,8,8h16v16H104z"/>
</g>
<g>
</g>
<g>
</g>
<g>
</g>
<g>
</g>
<g>
</g>
<g>
</g>
<g>
</g>
<g>
</g>
<g>
</g>
<g>
</g>
<g>
</g>
<g>
</g>
<g>
</g>
<g>
</g>
<g>
</g>
</svg>
