<?xml version="1.0" encoding="iso-8859-1"?>
<!-- Generator: Adobe Illustrator 19.0.0, SVG Export Plug-In . SVG Version: 6.00 Build 0)  -->
<svg version="1.1" id="Capa_1" xmlns="http://www.w3.org/2000/svg" xmlns:xlink="http://www.w3.org/1999/xlink" x="0px" y="0px"
	 viewBox="0 0 512.002 512.002" style="enable-background:new 0 0 512.002 512.002;" xml:space="preserve">
<g>
	<g>
		<path d="M350.082,395.033h-0.123c-5.523,0-10,4.477-10,10c0,5.523,4.477,10,10,10h0.123c5.523,0,10-4.477,10-10
			C360.082,399.51,355.605,395.033,350.082,395.033z"/>
	</g>
</g>
<g>
	<g>
		<path d="M326.915,419.741c-2.972-4.656-9.153-6.02-13.809-3.049l-105.063,67.063V314.002c0-5.523-4.477-10-10-10
			c-5.523,0-10,4.477-10,10v169.831L56.002,399.553V256.003c0-5.523-4.477-10-10-10s-10,4.477-10,10v149.03
			c0,3.414,1.742,6.592,4.62,8.429l151.917,96.968c1.607,1.026,3.474,1.571,5.38,1.571h0.123c1.907,0,3.773-0.545,5.38-1.571
			l120.444-76.88C328.521,430.579,329.887,424.397,326.915,419.741z"/>
	</g>
</g>
<g>
	<g>
		<path d="M205.111,267.642c-1.86-1.86-4.44-2.93-7.07-2.93s-5.21,1.07-7.07,2.93c-1.86,1.86-2.93,4.44-2.93,7.07
			c0,2.63,1.07,5.21,2.93,7.07c1.86,1.87,4.44,2.93,7.07,2.93s5.21-1.06,7.07-2.93c1.86-1.86,2.93-4.44,2.93-7.07
			C208.041,272.082,206.971,269.502,205.111,267.642z"/>
	</g>
</g>
<g>
	<g>
		<path d="M429.667,301.688c-20.953,0-38,17.047-38,38s17.047,38,38,38s38-17.047,38-38S450.62,301.688,429.667,301.688z
			 M429.667,357.688c-9.925,0-18-8.075-18-18s8.075-18,18-18s18,8.075,18,18S439.592,357.688,429.667,357.688z"/>
	</g>
</g>
<g>
	<g>
		<path d="M511.999,338.496V234.67c0-3.414-1.742-6.592-4.62-8.429l-151.917-96.968c-1.607-1.026-3.474-1.571-5.38-1.571h-0.123
			c-1.907,0-3.773,0.545-5.38,1.571l-146.598,93.573l-42.698-27.254l24.18-30.993c0.024-0.031,0.048-0.062,0.072-0.094
			c14.49-17.901,22.466-40.44,22.466-63.506C202.001,45.309,156.692,0,101.001,0S0.002,45.309,0.002,100.999
			c0,23.238,8.073,45.891,22.744,63.854c1.829,2.467,4.766,4.067,8.068,4.067c3.873,0,7.397-2.236,9.047-5.739
			c1.65-3.503,1.129-7.645-1.337-10.63C26.58,138.096,20.002,119.788,20.002,101c0-44.664,36.336-81,81-81s81,36.336,81,81
			c0,18.587-6.457,36.746-18.18,51.13c-0.112,0.138-0.22,0.278-0.324,0.42l-62.498,80.106L79.896,205.62
			c-3.398-4.354-9.682-5.129-14.036-1.73c-4.354,3.398-5.128,9.682-1.73,14.036l28.987,37.137c1.895,2.428,4.804,3.848,7.884,3.847
			c3.081,0,5.989-1.42,7.883-3.849l34.04-43.631l49.613,31.668c1.607,1.026,3.474,1.571,5.38,1.571h0.123
			c1.907,0,3.773-0.545,5.38-1.571l136.537-87.15v113.925c0,5.523,4.477,10,10,10c5.523,0,10-4.477,10-10V155.869l132.04,84.281
			v44.685c-15.11-17.515-37.44-28.634-62.333-28.634c-45.399,0-82.333,36.935-82.333,82.333c0,18.799,6.482,37.13,18.271,51.721
			c0.111,0.161,0.226,0.318,0.347,0.473l55.833,71.53c1.895,2.428,4.804,3.848,7.884,3.847c3.081,0,5.989-1.42,7.883-3.849
			l54.448-69.789v91.289l-25.897-16.53c-4.655-2.972-10.838-1.607-13.81,3.049c-2.972,4.655-1.606,10.838,3.049,13.81l41.278,26.348
			c1.637,1.044,3.507,1.571,5.381,1.571c1.651,0,3.305-0.409,4.806-1.23c3.203-1.755,5.194-5.117,5.194-8.77V338.579
			c0.001-0.015,0.002-0.03,0.002-0.045C512,338.521,511.999,338.508,511.999,338.496z M491.999,338.579
			c-0.01,14.288-4.977,28.244-13.989,39.301c-0.104,0.127-0.205,0.257-0.301,0.389l-48.044,61.581l-47.431-60.766
			c-0.199-0.302-0.415-0.596-0.649-0.879c-9.19-11.124-14.252-25.213-14.252-39.671c0-34.371,27.963-62.333,62.333-62.333
			c34.358,0,62.312,27.942,62.333,62.294V338.579z"/>
	</g>
</g>
<g>
	<g>
		<path d="M60.072,180.343c-1.86-1.86-4.44-2.93-7.07-2.93c-2.63,0-5.21,1.07-7.07,2.93s-2.93,4.44-2.93,7.07
			c0,2.64,1.07,5.21,2.93,7.07c1.86,1.87,4.44,2.93,7.07,2.93c2.63,0,5.21-1.06,7.07-2.93c1.86-1.86,2.93-4.43,2.93-7.07
			C63.002,184.783,61.932,182.203,60.072,180.343z"/>
	</g>
</g>
<g>
	<g>
		<path d="M101.001,44.453c-31.981,0-58,26.019-58,58c0,31.981,26.019,58,58,58c31.981,0,58-26.019,58-58
			C159.001,70.472,132.982,44.453,101.001,44.453z M101.001,140.452c-20.953,0-38-17.047-38-38s17.047-38,38-38s38,17.047,38,38
			S121.954,140.452,101.001,140.452z"/>
	</g>
</g>
<g>
</g>
<g>
</g>
<g>
</g>
<g>
</g>
<g>
</g>
<g>
</g>
<g>
</g>
<g>
</g>
<g>
</g>
<g>
</g>
<g>
</g>
<g>
</g>
<g>
</g>
<g>
</g>
<g>
</g>
</svg>
