<svg height="480pt" viewBox="-120 0 480 480" width="480pt" xmlns="http://www.w3.org/2000/svg"><path d="m200 0h-160c-22.082031.0273438-39.9726562 17.917969-40 40v400c.0273438 22.082031 17.917969 39.972656 40 40h160c22.082031-.027344 39.972656-17.917969 40-40v-400c-.027344-22.082031-17.917969-39.9726562-40-40zm-160 16h160c13.253906 0 24 10.746094 24 24v24h-208v-24c0-13.253906 10.746094-24 24-24zm184 208v144h-208v-288h208zm-24 240h-160c-13.253906 0-24-10.746094-24-24v-56h208v56c0 13.253906-10.746094 24-24 24zm0 0"/><path d="m120 400c-13.253906 0-24 10.746094-24 24s10.746094 24 24 24 24-10.746094 24-24-10.746094-24-24-24zm0 32c-4.417969 0-8-3.582031-8-8s3.582031-8 8-8 8 3.582031 8 8-3.582031 8-8 8zm0 0"/><path d="m104 32h64v16h-64zm0 0"/><path d="m72 32h16v16h-16zm0 0"/><path d="m120 120c-57.4375 0-104 46.5625-104 104s46.5625 104 104 104 104-46.5625 104-104c-.066406-57.410156-46.589844-103.933594-104-104zm0 16c18.609375.003906 36.730469 5.945312 51.726562 16.960938l-15.566406 15.566406c-13.121094-15.125-34.257812-20.5-53.007812-13.488282-18.753906 7.011719-31.175782 24.941407-31.152344 44.960938v32c0 4.417969-3.582031 8-8 8s-8 3.582031-8 8v20.6875l-7.039062 7.039062c-19.5625-26.722656-22.433594-62.175781-7.425782-91.695312 15.007813-29.523438 45.347656-48.09375 78.464844-48.03125zm32 64v32c.011719 10.167969 6.417969 19.230469 16 22.632812v9.367188h-84.6875l68.253906-68.257812c.242188 1.410156.386719 2.832031.433594 4.257812zm-64.679688 37.367188c.429688-1.757813.65625-3.558594.679688-5.367188v-32c-.054688-13.554688 8.46875-25.660156 21.246094-30.175781 12.78125-4.515625 27.019531-.453125 35.488281 10.128906zm32.679688 74.632812c-22.519531-.007812-44.171875-8.679688-60.464844-24.222656l7.777344-7.777344h108.6875c4.417969 0 8-3.582031 8-8v-24c0-4.417969-3.582031-8-8-8s-8-3.582031-8-8v-32c-.007812-5.949219-1.128906-11.847656-3.304688-17.382812l19.082032-19.082032c24.246094 25.476563 30.964844 62.957032 17.085937 95.269532-13.882812 32.316406-45.691406 53.242187-80.863281 53.195312zm0 0"/></svg>