<svg height="511pt" viewBox="0 0 511.99251 511" width="511pt" xmlns="http://www.w3.org/2000/svg"><path d="m507.191406 6.148438c-.136718-.160157-.1875-.363282-.339844-.511719-.152343-.148438-.355468-.203125-.519531-.339844-4.90625-4.699219-12.109375-6.085937-18.410156-3.550781l-476.832031 189.089844c-7.214844 2.863281-11.695313 10.125-11.0234378 17.859374.6718748 7.734376 6.3398438 14.113282 13.9453128 15.6875l227.164062 47.3125 46.921875 226.777344h.003906c1.539063 7.621094 7.9375 13.308594 15.6875 13.949219.527344.046875 1.046876.066406 1.566407.066406 7.199219.015625 13.667969-4.390625 16.292969-11.09375l189.089843-476.832031c2.539063-6.300781 1.152344-13.507812-3.546875-18.414062zm-201.921875 489.273437c-.378906-.035156-.398437-.140625-.453125-.40625l-46.917968-226.773437c-.085938-.414063-.3125-.761719-.429688-1.164063l115.492188-115.492187c3.234374-3.347657 3.191406-8.667969-.101563-11.960938s-8.613281-3.335938-11.960937-.105469l-115.492188 115.492188c-.402344-.113281-.75-.339844-1.160156-.425781l-226.773438-46.917969-1.730468 8.355469 1.640624-9.324219 457.925782-181.589844-80.277344 80.277344c-2.21875 2.144531-3.109375 5.316406-2.328125 8.300781s3.109375 5.3125 6.09375 6.09375 6.15625-.109375 8.300781-2.328125l80.25-80.25zm0 0"/></svg>