<svg id="Layer_3" enable-background="new 0 0 64 64" height="512" viewBox="0 0 64 64" width="512" xmlns="http://www.w3.org/2000/svg"><g><path d="m62.918 37.604c-.157-.367-.519-.604-.918-.604h-1.348c.225-.636.348-1.308.348-2 0-3.309-2.691-6-6-6 0-2.757-2.243-5-5-5-1.086 0-2.138.363-3 1.018-.116-.088-.238-.166-.361-.243l11.568-11.568c1.217-1.217 1.217-3.197 0-4.414-1.178-1.18-3.236-1.18-4.414 0l-11.334 11.334c-.981-.698-2.166-1.127-3.459-1.127-1.333 0-2.624.457-3.672 1.277-.908-.813-2.092-1.277-3.328-1.277s-2.42.464-3.328 1.277c-1.048-.82-2.339-1.277-3.672-1.277-2.999 0-5.491 2.211-5.931 5.089-.749.146-1.457.463-2.069.929-.862-.655-1.914-1.018-3-1.018-2.757 0-5 2.243-5 5-3.309 0-6 2.691-6 6 0 .69.13 1.362.356 2h-1.356c-.399 0-.761.237-.918.604-.158.367-.083.792.191 1.083l16.727 17.71v5.603c0 .552.447 1 1 1h26c.553 0 1-.448 1-1v-5.603l16.727-17.711c.274-.29.349-.715.191-1.082zm-7.711-27.397c.424-.424 1.162-.424 1.586 0 .437.437.437 1.149 0 1.586l-11.948 11.948c-.174-.807-.508-1.549-.971-2.201zm-50.207 24.793c0-2.206 1.794-4 4-4 .29 0 .593.041.952.129.35.086.718-.023.965-.284s.335-.635.23-.979c-.1-.328-.147-.604-.147-.866 0-1.654 1.346-3 3-3 .864 0 1.662.369 2.247 1.038.381.435 1.125.435 1.506 0 .585-.669 1.383-1.038 2.247-1.038.553 0 1-.448 1-1 0-2.206 1.794-4 4-4 1.146 0 2.205.485 2.983 1.366.202.229.496.351.804.336.306-.017.586-.172.763-.422.564-.801 1.48-1.28 2.45-1.28s1.886.479 2.45 1.28c.177.25.457.406.763.422.305.021.602-.107.804-.336.778-.881 1.837-1.366 2.983-1.366 2.206 0 4 1.794 4 4 0 .552.447 1 1 1 .864 0 1.662.369 2.247 1.038.381.435 1.125.435 1.506 0 .585-.669 1.383-1.038 2.247-1.038 1.654 0 3 1.346 3 3 0 .262-.047.538-.147.867-.104.344-.017.718.23.979.248.261.615.372.965.284.359-.089.662-.13.952-.13 2.206 0 4 1.794 4 4 0 .714-.194 1.394-.546 2h-52.907c-.352-.607-.547-1.289-.547-2zm15 26v-4h24v4zm24.569-6h-25.138l-11.333-12h47.804zm13.222-14h-51.582l-1.889-2h55.36z"/><path d="m31.586 8c.268.267.414.622.414 1s-.146.733-.414 1l-1.293 1.293 1.414 1.414 1.293-1.292c.645-.645 1-1.502 1-2.415s-.355-1.77-1-2.414l-.586-.586c-.268-.267-.414-.622-.414-1s.146-.733.414-1l1.293-1.293-1.414-1.414-1.293 1.292c-.645.645-1 1.502-1 2.415s.355 1.77 1 2.414z"/><path d="m25.586 10c.268.267.414.622.414 1s-.146.733-.414 1l-1.293 1.293 1.414 1.414 1.293-1.292c.645-.645 1-1.502 1-2.415s-.355-1.77-1-2.414l-.586-.586c-.268-.267-.414-.622-.414-1s.146-.733.414-1l1.293-1.293-1.414-1.414-1.293 1.292c-.645.645-1 1.502-1 2.415s.355 1.77 1 2.414z"/><path d="m37.586 10c.268.267.414.622.414 1s-.146.733-.414 1l-1.293 1.293 1.414 1.414 1.293-1.292c.645-.645 1-1.502 1-2.415s-.355-1.77-1-2.414l-.586-.586c-.268-.267-.414-.622-.414-1s.146-.733.414-1l1.293-1.293-1.414-1.414-1.293 1.292c-.645.645-1 1.502-1 2.415s.355 1.77 1 2.414z"/></g></svg>