<?xml version="1.0" encoding="iso-8859-1"?>
<!-- Generator: Adobe Illustrator 18.0.0, SVG Export Plug-In . SVG Version: 6.00 Build 0)  -->
<!DOCTYPE svg PUBLIC "-//W3C//DTD SVG 1.1//EN" "http://www.w3.org/Graphics/SVG/1.1/DTD/svg11.dtd">
<svg version="1.1" id="Capa_1" xmlns="http://www.w3.org/2000/svg" xmlns:xlink="http://www.w3.org/1999/xlink" x="0px" y="0px"
	 viewBox="0 0 248.194 248.194" style="enable-background:new 0 0 248.194 248.194;" xml:space="preserve">
<path d="M248.194,124.097c0-9.949-6.498-24.049-36.969-35.325c-2.084-5.135-4.617-10.039-7.535-14.675h-24.593
	c-4.143,0-7.5-3.357-7.5-7.5s3.357-7.5,7.5-7.5h12.879c-17.108-17.865-41.188-29-67.879-29s-50.77,11.135-67.879,29h40.878
	c4.143,0,7.5,3.357,7.5,7.5s-3.357,7.5-7.5,7.5H44.505c-2.918,4.637-5.452,9.54-7.536,14.675C6.498,100.049,0,114.148,0,124.097
	s6.498,24.049,36.971,35.325c2.235,5.502,4.97,10.748,8.158,15.675h31.968c4.143,0,7.5,3.357,7.5,7.5s-3.357,7.5-7.5,7.5H57.179
	c17.045,17.281,40.727,28,66.918,28c17.419,0,33.729-4.742,47.716-13h-2.716c-4.143,0-7.5-3.357-7.5-7.5s3.357-7.5,7.5-7.5h21.919
	c8.606-8.725,15.507-19.13,20.195-30.67C241.694,148.15,248.194,134.048,248.194,124.097z M125.097,89.097h33
	c4.143,0,7.5,3.357,7.5,7.5s-3.357,7.5-7.5,7.5h-33c-4.143,0-7.5-3.357-7.5-7.5S120.954,89.097,125.097,89.097z M63.097,104.097h15
	c4.143,0,7.5,3.357,7.5,7.5s-3.357,7.5-7.5,7.5h-15c-4.143,0-7.5-3.357-7.5-7.5S58.954,104.097,63.097,104.097z M129.097,190.097h-9
	c-4.143,0-7.5-3.357-7.5-7.5s3.357-7.5,7.5-7.5h9c4.143,0,7.5,3.357,7.5,7.5S133.239,190.097,129.097,190.097z M216.612,140.826
	c0.002-0.01,0.004-0.021,0.006-0.031c-2.359,1.049-4.876,2.081-7.581,3.088c-22.803,8.493-52.968,13.17-84.939,13.17
	s-62.137-4.677-84.938-13.17c-2.708-1.009-5.223-2.042-7.583-3.092c0.002,0.011,0.005,0.023,0.007,0.034
	C20.797,135.349,15,129.337,15,124.097c0-5.242,5.802-11.258,16.597-16.736c-0.889,4.945-1.398,10.022-1.481,15.203
	c17.774,10.061,50.46,18.633,93.98,18.633c43.511,0,76.204-8.568,93.981-18.626c-0.083-5.183-0.592-10.263-1.481-15.21
	c10.795,5.478,16.597,11.494,16.597,16.736C233.194,129.337,227.397,135.349,216.612,140.826z"/>
<g>
</g>
<g>
</g>
<g>
</g>
<g>
</g>
<g>
</g>
<g>
</g>
<g>
</g>
<g>
</g>
<g>
</g>
<g>
</g>
<g>
</g>
<g>
</g>
<g>
</g>
<g>
</g>
<g>
</g>
</svg>
